<svg width="936" height="875" viewBox="0.00 0.00 638.00 188.00" xmlns="http://www.w3.org/2000/svg" xmlns:xlink="http://www.w3.org/1999/xlink">
<g id="graph0" class="graph" transform="translate(4, 184)">
<title>G</title>
<polygon fill="white" stroke="none" points="-4,4 -4,-184 634,-184 634,4 -4,4"/>
<!-- a -->
<g id="node1" class="node">
<title>a</title>
<ellipse fill="none" stroke="black" cx="315" cy="-162" rx="33.58" ry="18"/>
<text text-anchor="middle" x="315" y="-157.8" font-family="Times,serif" font-size="14.00">Study</text>
</g>
<!-- b1 -->
<g id="node2" class="node">
<title>b1</title>
<ellipse fill="pink" stroke="pink" cx="135" cy="-90" rx="27" ry="18"/>
<text text-anchor="middle" x="135" y="-85.8" font-family="Times,serif" font-size="14.00">A 1</text>
</g>
<!-- a&#45;&#45;b1 -->
<g id="edge1" class="edge">
<title>a--b1</title>
<path fill="none" stroke="black" d="M288.44,-150.67C253.14,-136.94 191.34,-112.91 157.95,-99.93"/>
</g>
<!-- b2 -->
<g id="node3" class="node">
<title>b2</title>
<ellipse fill="pink" stroke="pink" cx="315" cy="-90" rx="27" ry="18"/>
<text text-anchor="middle" x="315" y="-85.8" font-family="Times,serif" font-size="14.00">A 2</text>
</g>
<!-- a&#45;&#45;b2 -->
<g id="edge2" class="edge">
<title>a--b2</title>
<path fill="none" stroke="black" d="M315,-143.7C315,-132.85 315,-118.92 315,-108.1"/>
</g>
<!-- b3 -->
<g id="node4" class="node">
<title>b3</title>
<ellipse fill="pink" stroke="pink" cx="495" cy="-90" rx="27" ry="18"/>
<text text-anchor="middle" x="495" y="-85.8" font-family="Times,serif" font-size="14.00">A 3</text>
</g>
<!-- a&#45;&#45;b3 -->
<g id="edge3" class="edge">
<title>a--b3</title>
<path fill="none" stroke="black" d="M341.56,-150.67C376.86,-136.94 438.66,-112.91 472.05,-99.93"/>
</g>
<!-- s1 -->
<g id="node5" class="node">
<title>s1</title>
<ellipse fill="lightblue" stroke="lightblue" cx="27" cy="-18" rx="27" ry="18"/>
<text text-anchor="middle" x="27" y="-13.8" font-family="Times,serif" font-size="14.00">B 1</text>
</g>
<!-- b1&#45;&#45;s1 -->
<g id="edge4" class="edge">
<title>b1--s1</title>
<path fill="none" stroke="black" d="M116.19,-76.81C96.49,-64.04 65.72,-44.09 45.96,-31.29"/>
</g>
<!-- s2 -->
<g id="node6" class="node">
<title>s2</title>
<ellipse fill="lightblue" stroke="lightblue" cx="99" cy="-18" rx="27" ry="18"/>
<text text-anchor="middle" x="99" y="-13.8" font-family="Times,serif" font-size="14.00">B 2</text>
</g>
<!-- b1&#45;&#45;s2 -->
<g id="edge5" class="edge">
<title>b1--s2</title>
<path fill="none" stroke="black" d="M126.65,-72.76C120.83,-61.46 113.11,-46.44 107.3,-35.15"/>
</g>
<!-- s3 -->
<g id="node7" class="node">
<title>s3</title>
<ellipse fill="lightblue" stroke="lightblue" cx="171" cy="-18" rx="27" ry="18"/>
<text text-anchor="middle" x="171" y="-13.8" font-family="Times,serif" font-size="14.00">B 3</text>
</g>
<!-- b1&#45;&#45;s3 -->
<g id="edge6" class="edge">
<title>b1--s3</title>
<path fill="none" stroke="black" d="M143.35,-72.76C149.17,-61.46 156.89,-46.44 162.7,-35.15"/>
</g>
<!-- s4 -->
<g id="node8" class="node">
<title>s4</title>
<ellipse fill="lightblue" stroke="lightblue" cx="243" cy="-18" rx="27" ry="18"/>
<text text-anchor="middle" x="243" y="-13.8" font-family="Times,serif" font-size="14.00">B 4</text>
</g>
<!-- b2&#45;&#45;s4 -->
<g id="edge7" class="edge">
<title>b2--s4</title>
<path fill="none" stroke="black" d="M300.08,-74.5C287.72,-62.48 270.25,-45.49 257.9,-33.49"/>
</g>
<!-- s5 -->
<g id="node9" class="node">
<title>s5</title>
<ellipse fill="lightblue" stroke="lightblue" cx="315" cy="-18" rx="27" ry="18"/>
<text text-anchor="middle" x="315" y="-13.8" font-family="Times,serif" font-size="14.00">B 5</text>
</g>
<!-- b2&#45;&#45;s5 -->
<g id="edge8" class="edge">
<title>b2--s5</title>
<path fill="none" stroke="black" d="M315,-71.7C315,-60.85 315,-46.92 315,-36.1"/>
</g>
<!-- s6 -->
<g id="node10" class="node">
<title>s6</title>
<ellipse fill="lightblue" stroke="lightblue" cx="387" cy="-18" rx="27" ry="18"/>
<text text-anchor="middle" x="387" y="-13.8" font-family="Times,serif" font-size="14.00">B 6</text>
</g>
<!-- b2&#45;&#45;s6 -->
<g id="edge9" class="edge">
<title>b2--s6</title>
<path fill="none" stroke="black" d="M329.92,-74.5C342.28,-62.48 359.75,-45.49 372.1,-33.49"/>
</g>
<!-- s7 -->
<g id="node11" class="node">
<title>s7</title>
<ellipse fill="lightblue" stroke="lightblue" cx="459" cy="-18" rx="27" ry="18"/>
<text text-anchor="middle" x="459" y="-13.8" font-family="Times,serif" font-size="14.00">B 7</text>
</g>
<!-- b3&#45;&#45;s7 -->
<g id="edge10" class="edge">
<title>b3--s7</title>
<path fill="none" stroke="black" d="M486.65,-72.76C480.83,-61.46 473.11,-46.44 467.3,-35.15"/>
</g>
<!-- s8 -->
<g id="node12" class="node">
<title>s8</title>
<ellipse fill="lightblue" stroke="lightblue" cx="531" cy="-18" rx="27" ry="18"/>
<text text-anchor="middle" x="531" y="-13.8" font-family="Times,serif" font-size="14.00">B 8</text>
</g>
<!-- b3&#45;&#45;s8 -->
<g id="edge11" class="edge">
<title>b3--s8</title>
<path fill="none" stroke="black" d="M503.35,-72.76C509.17,-61.46 516.89,-46.44 522.7,-35.15"/>
</g>
<!-- s9 -->
<g id="node13" class="node">
<title>s9</title>
<ellipse fill="lightblue" stroke="lightblue" cx="603" cy="-18" rx="27" ry="18"/>
<text text-anchor="middle" x="603" y="-13.8" font-family="Times,serif" font-size="14.00">B 9</text>
</g>
<!-- b3&#45;&#45;s9 -->
<g id="edge12" class="edge">
<title>b3--s9</title>
<path fill="none" stroke="black" d="M513.81,-76.81C533.51,-64.04 564.28,-44.09 584.04,-31.29"/>
</g>
</g>
</svg>